#!OML:ASF E:\motion texture\Top Level 1\Subject 1\Session 1\male.ASF
:FULLY-SPECIFIED
:DEGREES
305
root -12.0734 18.0335 5.13482 900.699 -87.0559 -896.543
lowerback -1.40872 -1.71694 -1.20244
upperback -0.293328 -2.28186 1.09895
thorax 0.580413 -1.14562 1.75413
lowerneck -13.3588 0.289248 -5.53849
upperneck 26.9734 2.71717 -5.90256
head 10.9877 -0.345401 -0.894269
rclavicle 7.82715e-016 -8.74653e-015
rhumerus -29.671 -1.61186 -85.2033
rradius 100.49
rwrist -37.7215
rhand -10.0866 -36.5343
rfingers 7.12502
rthumb 15.9002 -65.9015
lclavicle 7.82715e-016 -8.74653e-015
lhumerus -26.7012 -4.27627 90.2594
lradius 96.0844
lwrist 43.8001
lhand -3.44192 28.5496
lfingers 7.12502
lthumb 22.2898 57.2841
rfemur -33.5821 -7.14053 19.6759
rtibia 50.9519
rfoot -4.60036 -16.7747
rtoes 5.87952
lfemur -2.35421 -4.63461 -22.5824
ltibia 12.0245
lfoot -9.62382 -3.52721
ltoes 4.2998
306
root -12.212 18.0192 5.12745 902.646 -87.1664 -898.426
lowerback -1.56681 -1.78964 -1.2934
upperback -0.232514 -2.37615 1.11178
thorax 0.73922 -1.19464 1.80945
lowerneck -13.251 0.347854 -5.53214
upperneck 27.2141 2.80883 -5.99724
head 11.0606 -0.332284 -0.923443
rclavicle 1.27346e-014 -3.37934e-015
rhumerus -29.5232 -1.02931 -85.803
rradius 99.6741
rwrist -38.3065
rhand -10.053 -36.704
rfingers 7.12502
rthumb 15.9326 -66.0687
lclavicle 1.27346e-014 -3.37934e-015
lhumerus -25.7145 -3.95222 90.1351
lradius 94.3621
lwrist 44.8734
lhand -4.06284 28.7347
lfingers 7.12502
lthumb 21.6936 57.5393
rfemur -33.7062 -6.88714 19.5218
rtibia 48.3762
rfoot -4.72209 -17.1198
rtoes 6.11668
lfemur -1.80953 -4.56155 -22.7282
ltibia 11.8528
lfoot -9.99755 -3.63344
ltoes 4.01032
307
root -12.3511 18.0037 5.11961 904.641 -87.27 -900.331
lowerback -1.74628 -1.86108 -1.37692
upperback -0.178562 -2.46834 1.12193
thorax 0.9028 -1.24275 1.85676
lowerneck -13.1618 0.4037 -5.51873
upperneck 27.4748 2.89579 -6.0849
head 11.1452 -0.321275 -0.952558
rclavicle 1.30825e-014 -6.55989e-015
rhumerus -29.2996 -0.506134 -86.3643
rradius 98.7143
rwrist -39.0635
rhand -10.0837 -37.1397
rfingers 7.12502
rthumb 15.9031 -66.5067
lclavicle 1.30825e-014 -6.55989e-015
lhumerus -24.7331 -3.55516 90.0325
lradius 92.6084
lwrist 46.0217
lhand -4.66249 29.0809
lfingers 7.12502
lthumb 21.1177 57.9508
rfemur -33.7643 -6.58978 19.3523
rtibia 45.6349
rfoot -4.69456 -17.4529
rtoes 6.52159
lfemur -1.31544 -4.46865 -22.8549
ltibia 11.7265
lfoot -10.3765 -3.75364
ltoes 3.7363
308
root -12.4906 17.9869 5.11111 906.715 -87.3675 -902.29
lowerback -1.9421 -1.93296 -1.45757
upperback -0.133567 -2.56065 1.13004
thorax 1.06648 -1.29098 1.89939
lowerneck -13.0887 0.458322 -5.49524
upperneck 27.7495 2.98019 -6.16981
head 11.2388 -0.311243 -0.983288
rclavicle -1.39274e-014 -3.18055e-015
rhumerus -29.0138 -0.0381478 -86.8851
rradius 97.6433
rwrist -40.014
rhand -10.2291 -37.9006
rfingers 7.12502
rthumb 15.763 -67.2787
lclavicle -1.39274e-014 -3.18055e-015
lhumerus -23.775 -3.07995 89.9565
lradius 90.8556
lwrist 47.2615
lhand -5.39353 29.5353
lfingers 7.12502
lthumb 20.4153 58.4821
rfemur -33.7604 -6.24704 19.1662
rtibia 42.7395
rfoot -4.47994 -17.7624
rtoes 7.0117
lfemur -0.870067 -4.36276 -22.9643
ltibia 11.6414
lfoot -10.7571 -3.89457
ltoes 3.58923
309
root -12.6306 17.969 5.10209 908.833 -87.4554 -904.273
lowerback -2.15512 -2.00354 -1.53127
upperback -0.0927133 -2.65077 1.13375
thorax 1.23521 -1.33821 1.93255
lowerneck -13.0323 0.512537 -5.46189
upperneck 28.0304 3.06199 -6.24679
head 11.3387 -0.300959 -1.01351
rclavicle -7.64079e-015 -1.0138e-014
rhumerus -28.6686 0.362329 -87.367
rradius 96.4938
rwrist -41.1348
rhand -10.4946 -38.9871
rfingers 7.12502
rthumb 15.5073 -68.3852
lclavicle -7.64079e-015 -1.0138e-014
lhumerus -22.841 -2.53027 89.9059
lradius 89.1288
lwrist 48.5854
lhand -6.19369 30.106
lfingers 7.12502
lthumb 19.6461 59.1333
rfemur -33.695 -5.85039 18.9631
rtibia 39.7036
rfoot -4.07577 -18.024
rtoes 7.46455
lfemur -0.464647 -4.25313 -23.0595
ltibia 11.589
lfoot -11.1411 -4.04395
ltoes 3.49289
310
root -12.7712 17.9499 5.09236 911.042 -87.5334 -906.326
lowerback -2.36853 -2.0732 -1.60757
upperback -0.0648684 -2.73924 1.13732
thorax 1.39113 -1.38451 1.96675
lowerneck -13.0013 0.566398 -5.42054
upperneck 28.3256 3.14376 -6.31926
head 11.4498 -0.290548 -1.04405
rclavicle 7.01958e-015 1.19271e-015
rhumerus -28.2928 0.693331 -87.8031
rradius 95.3019
rwrist -42.3649
rhand -10.7165 -40.2621
rfingers 7.12502
rthumb 15.2936 -69.6767
lclavicle 7.01958e-015 1.19271e-015
lhumerus -21.9524 -1.90636 89.888
lradius 87.4578
lwrist 49.9489
lhand -7.1278 30.626
lfingers 7.12502
lthumb 18.7479 59.7425
rfemur -33.578 -5.39436 18.7409
rtibia 36.5522
rfoot -3.49417 -18.2355
rtoes 7.8365
lfemur -0.0983513 -4.14178 -23.1444
ltibia 11.5665
lfoot -11.5245 -4.21072
ltoes 3.48512
